<svg xmlns="http://www.w3.org/2000/svg" width="380" height="580" viewBox="0 0 380 580"><g transform="translate(-1013 -2397)" opacity="0.5"><circle cx="15" cy="15" r="15" transform="translate(1013 2397)" fill="#fff" opacity="0.11"/><circle cx="15" cy="15" r="15" transform="translate(1063 2397)" fill="#fff" opacity="0.11"/><circle cx="15" cy="15" r="15" transform="translate(1113 2397)" fill="#fff" opacity="0.11"/><circle cx="15" cy="15" r="15" transform="translate(1163 2397)" fill="#fff" opacity="0.11"/><circle cx="15" cy="15" r="15" transform="translate(1213 2397)" fill="#fff" opacity="0.11"/><circle cx="15" cy="15" r="15" transform="translate(1263 2397)" fill="#fff" opacity="0.11"/><circle cx="15" cy="15" r="15" transform="translate(1313 2397)" fill="#fff" opacity="0.11"/><circle cx="15" cy="15" r="15" transform="translate(1363 2397)" fill="#fff" opacity="0.11"/><circle cx="15" cy="15" r="15" transform="translate(1013 2447)" fill="#fff" opacity="0.11"/><circle cx="15" cy="15" r="15" transform="translate(1063 2447)" fill="#fff" opacity="0.11"/><circle cx="15" cy="15" r="15" transform="translate(1113 2447)" fill="#fff" opacity="0.11"/><circle cx="15" cy="15" r="15" transform="translate(1163 2447)" fill="#fff" opacity="0.11"/><circle cx="15" cy="15" r="15" transform="translate(1213 2447)" fill="#fff" opacity="0.11"/><circle cx="15" cy="15" r="15" transform="translate(1263 2447)" fill="#fff" opacity="0.11"/><circle cx="15" cy="15" r="15" transform="translate(1313 2447)" fill="#fff" opacity="0.11"/><circle cx="15" cy="15" r="15" transform="translate(1363 2447)" fill="#fff" opacity="0.11"/><circle cx="15" cy="15" r="15" transform="translate(1013 2497)" fill="#fff" opacity="0.11"/><circle cx="15" cy="15" r="15" transform="translate(1063 2497)" fill="#fff" opacity="0.11"/><circle cx="15" cy="15" r="15" transform="translate(1113 2497)" fill="#fff" opacity="0.11"/><circle cx="15" cy="15" r="15" transform="translate(1163 2497)" fill="#fff" opacity="0.11"/><circle cx="15" cy="15" r="15" transform="translate(1213 2497)" fill="#fff" opacity="0.11"/><circle cx="15" cy="15" r="15" transform="translate(1263 2497)" fill="#fff" opacity="0.11"/><circle cx="15" cy="15" r="15" transform="translate(1313 2497)" fill="#fff" opacity="0.11"/><circle cx="15" cy="15" r="15" transform="translate(1363 2497)" fill="#fff" opacity="0.11"/><circle cx="15" cy="15" r="15" transform="translate(1013 2547)" fill="#fff" opacity="0.11"/><circle cx="15" cy="15" r="15" transform="translate(1063 2547)" fill="#fff" opacity="0.11"/><circle cx="15" cy="15" r="15" transform="translate(1113 2547)" fill="#fff" opacity="0.11"/><circle cx="15" cy="15" r="15" transform="translate(1163 2547)" fill="#fff" opacity="0.11"/><circle cx="15" cy="15" r="15" transform="translate(1213 2547)" fill="#fff" opacity="0.11"/><circle cx="15" cy="15" r="15" transform="translate(1263 2547)" fill="#fff" opacity="0.11"/><circle cx="15" cy="15" r="15" transform="translate(1313 2547)" fill="#fff" opacity="0.11"/><circle cx="15" cy="15" r="15" transform="translate(1363 2547)" fill="#fff" opacity="0.11"/><circle cx="15" cy="15" r="15" transform="translate(1013 2597)" fill="#fff" opacity="0.11"/><circle cx="15" cy="15" r="15" transform="translate(1063 2597)" fill="#fff" opacity="0.11"/><circle cx="15" cy="15" r="15" transform="translate(1113 2597)" fill="#fff" opacity="0.11"/><circle cx="15" cy="15" r="15" transform="translate(1163 2597)" fill="#fff" opacity="0.11"/><circle cx="15" cy="15" r="15" transform="translate(1213 2597)" fill="#fff" opacity="0.11"/><circle cx="15" cy="15" r="15" transform="translate(1263 2597)" fill="#fff" opacity="0.11"/><circle cx="15" cy="15" r="15" transform="translate(1313 2597)" fill="#fff" opacity="0.11"/><circle cx="15" cy="15" r="15" transform="translate(1363 2597)" fill="#fff" opacity="0.11"/><circle cx="15" cy="15" r="15" transform="translate(1013 2647)" fill="#fff" opacity="0.11"/><circle cx="15" cy="15" r="15" transform="translate(1063 2647)" fill="#fff" opacity="0.11"/><circle cx="15" cy="15" r="15" transform="translate(1113 2647)" fill="#fff" opacity="0.11"/><circle cx="15" cy="15" r="15" transform="translate(1163 2647)" fill="#fff" opacity="0.11"/><circle cx="15" cy="15" r="15" transform="translate(1213 2647)" fill="#fff" opacity="0.11"/><circle cx="15" cy="15" r="15" transform="translate(1263 2647)" fill="#fff" opacity="0.11"/><circle cx="15" cy="15" r="15" transform="translate(1313 2647)" fill="#fff" opacity="0.11"/><circle cx="15" cy="15" r="15" transform="translate(1363 2647)" fill="#fff" opacity="0.11"/><circle cx="15" cy="15" r="15" transform="translate(1013 2697)" fill="#fff" opacity="0.11"/><circle cx="15" cy="15" r="15" transform="translate(1063 2697)" fill="#fff" opacity="0.11"/><circle cx="15" cy="15" r="15" transform="translate(1113 2697)" fill="#fff" opacity="0.11"/><circle cx="15" cy="15" r="15" transform="translate(1163 2697)" fill="#fff" opacity="0.11"/><circle cx="15" cy="15" r="15" transform="translate(1213 2697)" fill="#fff" opacity="0.11"/><circle cx="15" cy="15" r="15" transform="translate(1263 2697)" fill="#fff" opacity="0.11"/><circle cx="15" cy="15" r="15" transform="translate(1313 2697)" fill="#fff" opacity="0.11"/><circle cx="15" cy="15" r="15" transform="translate(1363 2697)" fill="#fff" opacity="0.11"/><circle cx="15" cy="15" r="15" transform="translate(1013 2747)" fill="#fff" opacity="0.11"/><circle cx="15" cy="15" r="15" transform="translate(1063 2747)" fill="#fff" opacity="0.11"/><circle cx="15" cy="15" r="15" transform="translate(1113 2747)" fill="#fff" opacity="0.11"/><circle cx="15" cy="15" r="15" transform="translate(1163 2747)" fill="#fff" opacity="0.11"/><circle cx="15" cy="15" r="15" transform="translate(1213 2747)" fill="#fff" opacity="0.11"/><circle cx="15" cy="15" r="15" transform="translate(1263 2747)" fill="#fff" opacity="0.11"/><circle cx="15" cy="15" r="15" transform="translate(1313 2747)" fill="#fff" opacity="0.11"/><circle cx="15" cy="15" r="15" transform="translate(1363 2747)" fill="#fff" opacity="0.11"/><circle cx="15" cy="15" r="15" transform="translate(1013 2797)" fill="#fff" opacity="0.11"/><circle cx="15" cy="15" r="15" transform="translate(1063 2797)" fill="#fff" opacity="0.11"/><circle cx="15" cy="15" r="15" transform="translate(1113 2797)" fill="#fff" opacity="0.11"/><circle cx="15" cy="15" r="15" transform="translate(1163 2797)" fill="#fff" opacity="0.11"/><circle cx="15" cy="15" r="15" transform="translate(1213 2797)" fill="#fff" opacity="0.11"/><circle cx="15" cy="15" r="15" transform="translate(1263 2797)" fill="#fff" opacity="0.11"/><circle cx="15" cy="15" r="15" transform="translate(1313 2797)" fill="#fff" opacity="0.11"/><circle cx="15" cy="15" r="15" transform="translate(1363 2797)" fill="#fff" opacity="0.11"/><circle cx="15" cy="15" r="15" transform="translate(1013 2847)" fill="#fff" opacity="0.11"/><circle cx="15" cy="15" r="15" transform="translate(1063 2847)" fill="#fff" opacity="0.11"/><circle cx="15" cy="15" r="15" transform="translate(1113 2847)" fill="#fff" opacity="0.11"/><circle cx="15" cy="15" r="15" transform="translate(1163 2847)" fill="#fff" opacity="0.11"/><circle cx="15" cy="15" r="15" transform="translate(1213 2847)" fill="#fff" opacity="0.11"/><circle cx="15" cy="15" r="15" transform="translate(1263 2847)" fill="#fff" opacity="0.11"/><circle cx="15" cy="15" r="15" transform="translate(1313 2847)" fill="#fff" opacity="0.11"/><circle cx="15" cy="15" r="15" transform="translate(1363 2847)" fill="#fff" opacity="0.11"/><circle cx="15" cy="15" r="15" transform="translate(1013 2897)" fill="#fff" opacity="0.11"/><circle cx="15" cy="15" r="15" transform="translate(1063 2897)" fill="#fff" opacity="0.11"/><circle cx="15" cy="15" r="15" transform="translate(1113 2897)" fill="#fff" opacity="0.11"/><circle cx="15" cy="15" r="15" transform="translate(1163 2897)" fill="#fff" opacity="0.11"/><circle cx="15" cy="15" r="15" transform="translate(1213 2897)" fill="#fff" opacity="0.11"/><circle cx="15" cy="15" r="15" transform="translate(1263 2897)" fill="#fff" opacity="0.11"/><circle cx="15" cy="15" r="15" transform="translate(1313 2897)" fill="#fff" opacity="0.11"/><circle cx="15" cy="15" r="15" transform="translate(1363 2897)" fill="#fff" opacity="0.11"/><circle cx="15" cy="15" r="15" transform="translate(1013 2947)" fill="#fff" opacity="0.11"/><circle cx="15" cy="15" r="15" transform="translate(1063 2947)" fill="#fff" opacity="0.11"/><circle cx="15" cy="15" r="15" transform="translate(1113 2947)" fill="#fff" opacity="0.11"/><circle cx="15" cy="15" r="15" transform="translate(1163 2947)" fill="#fff" opacity="0.11"/><circle cx="15" cy="15" r="15" transform="translate(1213 2947)" fill="#fff" opacity="0.11"/><circle cx="15" cy="15" r="15" transform="translate(1263 2947)" fill="#fff" opacity="0.11"/><circle cx="15" cy="15" r="15" transform="translate(1313 2947)" fill="#fff" opacity="0.11"/><circle cx="15" cy="15" r="15" transform="translate(1363 2947)" fill="#fff" opacity="0.11"/></g></svg>