<svg xmlns="http://www.w3.org/2000/svg" width="716.013" height="712.546" viewBox="0 0 716.013 712.546"><g transform="translate(-7207.235 846.569)" opacity="0.91"><g transform="translate(6278.039 -940.929)"><g transform="translate(79 32.55)"><g transform="translate(850.196 61.81)"><g transform="translate(0 0)" opacity="0.23"><path d="M667.864,183.435,661.1,171.891l-.428.349C598.075,69.578,485.058.878,356.256.878,159.82.888,0,160.708,0,357.156S159.82,713.424,356.268,713.424A354.662,354.662,0,0,0,480.6,691a351.284,351.284,0,0,0,76.05-37.314l7.177-4.683-.62-2.121A357.2,357.2,0,0,0,701.941,443.3l3.737,3.217,3.791-19.554a347.292,347.292,0,0,0-41.606-243.523Zm18.774,209.071a16.039,16.039,0,0,0-11.408-4.829h-.122a13.879,13.879,0,0,0-4.864.86l-.249-.193v.282a12.965,12.965,0,0,0-7.572,7.718c-2.911,8.033,2.291,15.909,6.792,20.807a154.371,154.371,0,0,1-5.087,25.152c-2.279,7.548-13.022,19.723-28.469,27.6a20.337,20.337,0,0,0-3.666-8.406c-6.173-7.741-17.1-11.836-31.571-11.836a108.061,108.061,0,0,0-39.921,8.406c-17.061,7.13-24.542,17.409-30.014,24.89a44.521,44.521,0,0,1-5.168,6.319c-7.56,6.792-29.02,13.113-43.194,17.288-3.791,1.127-7.378,2.179-10.583,3.179-20.345,6.433-19.678,28.357-19.183,44.369.193,6.453.383,13.133-.383,18.843-1.648,12.118.407,21.969,6.117,29.326,4.941,6.374,12.525,10.459,21.371,11.5,6.759.789,17.578.292,28.457-.249,8.225-.43,17.377-.779,21.393-.564,1.715,4.491,4.073,13.089,5.89,19.723.383,1.466.8,3,1.218,4.515a331.587,331.587,0,0,1-65.242,32.676,324.771,324.771,0,0,1-105.946,17.851l-.012,2.37h-.067v-2.37c-133.591,0-254.9-82.933-304.312-207.145,6.06-7.378,7.481-16.462,8.424-22.52A116.394,116.394,0,0,1,78.444,425.9c9.044-20.681,11.589-29.111,12.395-33.939.75-1.2,1.93-2.923,3.769-5.665l2.173-3.248c16.254-24.339,18.324-42.05,20.947-64.463l.148-1.265c.74-6.4,1.563-13.563,2.855-21.912,3.712-24,14.516-37.772,24.937-51.034,3.254-4.118,6.319-8.022,8.919-11.824,5.7-8.215,9.5-19.019,13.505-30.445,2.031-5.766,7.177-20.276,9.845-24.728a26.905,26.905,0,0,1,15.4,7.87c2.567,2.832,3.582,5.545,3.268,8.864-1.15,12.868-7.195,28.027-12.779,42.02-7.171,17.912-12.835,32.051-10.048,45.839,4.874,24.379,25.647,34.5,35.492,39.285a26.369,26.369,0,0,0,11.289,2.713c15.842,0,22.81-12.491,28.5-22.715,1.675-3.017,6.759-12.191,8.446-13.612,15.532-5.5,27.429-17.517,37.981-28.16l1.044-1.06c2.461-2.51,4.829-4.908,6.849-6.7,6.7,9.439,15.554,14.7,21.608,18.291,1.214.716,4.124,2.449,5.5,3.487.655,4.288,1.224,10.99,1.81,18.054l.185,2.206c2.788,33.3,5.105,54.409,13.851,66.691a48.228,48.228,0,0,0,5.93,6.861,19.538,19.538,0,0,0-9.715,5.731c-10.167,10.506-15.741,35.69-15.475,43.938.337,11.161,4.322,46.062,17.817,59.861,11.994,12.128,45.043,22.364,60.864,17.6,5.326-1.592,9.322-5.271,12.819-8.509,4.637-4.288,7.153-6.591,10.741-5.869,11.769,2.212,21.314-5.166,26.066-18.956,3.633-10.571,5.45-30.443-5.192-38.768-3.745-2.913-8.462-4.331-14.465-4.331a88,88,0,0,0-15.313,1.894,74.349,74.349,0,0,1-11.159,1.514,4.637,4.637,0,0,0-1.028.024c-7.66-4.852-20.164-13.113-32.676-38.851-.3-.643-.643-1.275-.959-1.885,1.241.485,2.425.937,3.566,1.356a37.169,37.169,0,0,1,3.635,1.454c3.814,4.616,11.52,12.919,23.806,12.919,9.141,0,25-4.331,28.639-33.693a48.782,48.782,0,0,0-7.516-32.807c.521-.637,1.129-1.364,1.851-2.183,10.007-11.357,14.51-14.792,19.858-18.855,6.25-4.683,13.338-10,26.494-24.813,26.2-29.438,43.565-75.9,43.565-93.716a32.129,32.129,0,0,0-5.754-18.2c7.414-5.488,13.369-10.865,18.922-15.864,11.733-10.585,18.19-16.406,33.468-18.421,10.358-1.375,17.827-1.444,21.551-.716-1.443,4-4.051,10.364-8.734,20.509l-.9,2.025c-.925,2.019-1.806,3.949-2.607,5.766-12.219,2.4-19.96,10.488-20.771,21.766-1.32,18.465,13.156,23.307,27.193,27.984,29.5,9.845,41.716,5.766,54.882-.1l7.809-3.408a77.939,77.939,0,0,0,9.817-5.111,331.091,331.091,0,0,1,36.106,150.567,336.156,336.156,0,0,1-2.019,36.333C687.133,393.161,686.944,392.812,686.638,392.506Zm-330.846,2.279c15.3,30.512,31.617,40.824,40.5,46.444,6.838,4.31,17.8,3.294,28.242,1.4a82.08,82.08,0,0,1,10.54-1.49c.564,4.659-.993,12.908-3.126,15.954-14.137-1.9-23.277,6.522-29.055,11.86-1.32,1.217-3.317,3.08-3.779,3.351a12.181,12.181,0,0,1-3.442.349c-11.329,0-29.247-6.917-34.308-12.028-5.49-5.586-10.749-29.077-11.211-44.357C350.1,412.208,352.83,401.647,355.792,394.785ZM642.169,186.334a54.278,54.278,0,0,1-7.739,4.1L626.293,194c-6.828,3.031-10.03,4.367-15.064,4.367-5.371,0-12.716-1.612-23.131-5.083-4.312-1.445-9.547-3.189-11.508-4.4a7.415,7.415,0,0,1,2.435-.774c4.221-.768,12.051-2.173,14.849-9.4,1.06-2.668,2.526-5.9,4.142-9.444l.9-1.987c5.427-11.787,8.837-20.033,10.721-26.076A335.3,335.3,0,0,1,642.169,186.334ZM356.268,24a331.879,331.879,0,0,1,227,89.615,125.744,125.744,0,0,0-21.237,1.354c-22.364,2.934-33.274,12.767-46.17,24.4a195.984,195.984,0,0,1-20.515,16.791,48.3,48.3,0,0,0-7.56,6.194l-7.538,7.8,9.3,10.111c3.4,3.639,5.811,6.494,5.811,10.088,0,10.978-14.251,51.972-37.72,78.359-11.623,13.083-17.446,17.45-23.358,21.89-5.675,4.318-11.544,8.789-23.064,21.868-8.564,9.732-9.659,14.607-9.659,17.772v2.325l.9,2.149a28.128,28.128,0,0,0,3.161,5.2c3.023,4.5,6.792,10.088,5.632,20.254-1.083,8.746-2.992,13.168-5.677,13.168-2.143,0-4.41-2.595-7.445-6.275-3.228-3.363-7.785-5.077-12.118-6.723-7.313-2.765-15.574-5.884-20.858-13.292-5.7-8.006-7.8-33.085-9.648-55.206l-.187-2.206c-.716-8.474-1.32-15.787-2.194-20.892-1.62-9.845-8.762-14.1-16.339-18.607-5.5-3.266-11.741-6.978-15.587-13.354-5.326-8.864-11.876-10.725-16.44-10.725-5.918,0-10.066,3.132-12.513,4.971-4.057,2.913-8.006,6.934-12.191,11.183l-1.028,1.044c-8.762,8.841-18.7,18.855-29.235,22.591-8.655,3.069-14.6,12.767-21.026,24.333-3.593,6.443-6.1,10.674-8.073,10.674l-1.156-.31c-10.352-5.05-20.671-10.99-23.108-23.143-1.421-7.041,3.341-18.928,9.119-33.349,5.912-14.847,12.616-31.66,14.07-47.881.892-9.727-2.273-18.877-9.2-26.506-12.621-13.805-31.684-17.75-41.156-14.3l-1.827.819c-8.061,4.452-13.241,15.866-21.144,38.224-3.335,9.484-6.782,19.307-10.741,25.016-2.358,3.43-5.1,6.917-8.045,10.63-11.138,14.188-25,31.842-29.626,61.829-1.338,8.687-2.194,16.152-2.968,22.81l11.487,1.314-11.627-.118c-2.437,20.844-4.051,34.618-17.213,54.33l-2.173,3.248c-3.757,5.608-5.168,7.73-6.149,9.76l-.959,1.985-.158,2.2c-.12,1.581-1.411,7.6-10.861,29.215a137.969,137.969,0,0,0-10.838,37.9c-1.089,6.94-2.115,10.482-4.647,12.367A331.494,331.494,0,0,1,23.118,357.126C23.108,173.454,172.566,24,356.268,24Zm200.26,599.213c-5.393-19.656-8.349-28.976-16.949-31.863-3.339-1.129-7.593-1.6-14.24-1.6-5.439,0-12.018.339-18.64.7-9.229.474-18.729,1.1-24.507.383-1.9-.235-4.424-.878-5.845-2.707-1.715-2.2-2.236-6.5-1.478-12.073,1.026-7.615.787-15.244.574-22.636-.339-11.6-.339-20.558,3.047-21.642,3.07-.971,6.522-1.964,10.167-3.047,19.057-5.62,40.655-11.962,52.106-22.261a61.2,61.2,0,0,0,8.385-9.875c4.738-6.477,9.184-12.57,20.31-17.229a84.462,84.462,0,0,1,30.985-6.589c7.175,0,11.126,1.4,12.773,2.516.067.282.122.586.191.89,3.69,17.241,15,23.165,32.159,14.636A99.239,99.239,0,0,0,667.536,475.8,335.026,335.026,0,0,1,556.528,623.211Z" transform="translate(0 -0.878)" fill="#005cff"/><path d="M305.766,150.958c-6.046,0-15.029,2.473-23.356,14.273-8.509,12.029-11.982,15.392-15.076,18.36a63.039,63.039,0,0,0-10.224,12.327L222.854,247.6l24.552-2.709a37.832,37.832,0,0,1,8.349-.079,17.625,17.625,0,0,1,7.627,3.059c3.1,1.851,7.359,4.4,13.338,4.4,6.409,0,12.987-2.867,21.993-9.571,26.731-19.858,39.368-40.118,37.551-60.181C335.362,171.816,323.763,150.958,305.766,150.958Zm-20.828,73.185c-5.52,4.1-7.775,4.864-7.605,5.068a12.827,12.827,0,0,1-2.054-1.176,44.81,44.81,0,0,0-8.868-4.331l9.93-15.005a40.611,40.611,0,0,1,7.039-8.491c3.611-3.493,8.112-7.836,17.875-21.642,2.4-3.384,4.152-4.41,4.446-4.5,2.392.383,7.053,7.329,7.536,10.482C314.273,195.776,304.23,209.842,284.937,224.143Z" transform="translate(216.912 145.2)" fill="#005cff"/></g></g></g></g></g></svg>